<svg width="422" height="77" viewBox="0 0 422 77" fill="none" xmlns="http://www.w3.org/2000/svg">
<path d="M64.6591 30.4773H47.6136C47.3864 28.7273 46.9205 27.1477 46.2159 25.7386C45.5114 24.3295 44.5795 23.125 43.4205 22.125C42.2614 21.125 40.8864 20.3636 39.2955 19.8409C37.7273 19.2955 35.9886 19.0227 34.0795 19.0227C30.6932 19.0227 27.7727 19.8523 25.3182 21.5114C22.8864 23.1705 21.0114 25.5682 19.6932 28.7045C18.3977 31.8409 17.75 35.6364 17.75 40.0909C17.75 44.7273 18.4091 48.6136 19.7273 51.75C21.0682 54.8636 22.9432 57.2159 25.3523 58.8068C27.7841 60.375 30.6591 61.1591 33.9773 61.1591C35.8409 61.1591 37.5341 60.9205 39.0568 60.4432C40.6023 59.9659 41.9545 59.2727 43.1136 58.3636C44.2955 57.4318 45.2614 56.3068 46.0114 54.9886C46.7841 53.6477 47.3182 52.1364 47.6136 50.4545L64.6591 50.5568C64.3636 53.6477 63.4659 56.6932 61.9659 59.6932C60.4886 62.6932 58.4545 65.4318 55.8636 67.9091C53.2727 70.3636 50.1136 72.3182 46.3864 73.7727C42.6818 75.2273 38.4318 75.9545 33.6364 75.9545C27.3182 75.9545 21.6591 74.5682 16.6591 71.7955C11.6818 69 7.75 64.9318 4.86364 59.5909C1.97727 54.25 0.534091 47.75 0.534091 40.0909C0.534091 32.4091 2 25.8977 4.93182 20.5568C7.86364 15.2159 11.8295 11.1591 16.8295 8.38636C21.8295 5.61363 27.4318 4.22727 33.6364 4.22727C37.8636 4.22727 41.7727 4.81818 45.3636 6C48.9545 7.15909 52.1136 8.86363 54.8409 11.1136C57.5682 13.3409 59.7841 16.0795 61.4886 19.3295C63.1932 22.5795 64.25 26.2955 64.6591 30.4773ZM90.9858 45.1364V75H74.3153V5.18182H90.4403V32.25H91.0199C92.2017 29.0227 94.1335 26.5 96.8153 24.6818C99.5199 22.8636 102.827 21.9545 106.736 21.9545C110.418 21.9545 113.622 22.7727 116.349 24.4091C119.077 26.0227 121.19 28.3068 122.69 31.2614C124.213 34.2159 124.963 37.6705 124.94 41.625V75H108.27V44.8977C108.293 41.9886 107.565 39.7159 106.088 38.0795C104.611 36.4432 102.531 35.625 99.8494 35.625C98.0994 35.625 96.554 36.0114 95.2131 36.7841C93.8949 37.5341 92.8608 38.6136 92.1108 40.0227C91.3835 41.4318 91.0085 43.1364 90.9858 45.1364ZM135.347 75V22.6364H152.017V75H135.347ZM143.699 16.5341C141.358 16.5341 139.347 15.7614 137.665 14.2159C135.983 12.6477 135.142 10.7614 135.142 8.55682C135.142 6.375 135.983 4.51136 137.665 2.96591C139.347 1.39772 141.358 0.613632 143.699 0.613632C146.063 0.613632 148.074 1.39772 149.733 2.96591C151.415 4.51136 152.256 6.375 152.256 8.55682C152.256 10.7614 151.415 12.6477 149.733 14.2159C148.074 15.7614 146.063 16.5341 143.699 16.5341ZM192.185 22.6364V34.9091H159.151V22.6364H192.185ZM166.071 10.0909H182.741V58.5341C182.741 59.5568 182.901 60.3864 183.219 61.0227C183.56 61.6364 184.048 62.0795 184.685 62.3523C185.321 62.6023 186.082 62.7273 186.969 62.7273C187.605 62.7273 188.276 62.6705 188.98 62.5568C189.707 62.4205 190.253 62.3068 190.616 62.2159L193.139 74.25C192.344 74.4773 191.219 74.7614 189.764 75.1023C188.332 75.4432 186.616 75.6591 184.616 75.75C180.707 75.9318 177.355 75.4773 174.56 74.3864C171.787 73.2727 169.662 71.5455 168.185 69.2045C166.73 66.8636 166.026 63.9205 166.071 60.375V10.0909ZM264.065 30.4773H247.02C246.793 28.7273 246.327 27.1477 245.622 25.7386C244.918 24.3295 243.986 23.125 242.827 22.125C241.668 21.125 240.293 20.3636 238.702 19.8409C237.134 19.2955 235.395 19.0227 233.486 19.0227C230.099 19.0227 227.179 19.8523 224.724 21.5114C222.293 23.1705 220.418 25.5682 219.099 28.7045C217.804 31.8409 217.156 35.6364 217.156 40.0909C217.156 44.7273 217.815 48.6136 219.134 51.75C220.474 54.8636 222.349 57.2159 224.759 58.8068C227.19 60.375 230.065 61.1591 233.384 61.1591C235.247 61.1591 236.94 60.9205 238.463 60.4432C240.009 59.9659 241.361 59.2727 242.52 58.3636C243.702 57.4318 244.668 56.3068 245.418 54.9886C246.19 53.6477 246.724 52.1364 247.02 50.4545L264.065 50.5568C263.77 53.6477 262.872 56.6932 261.372 59.6932C259.895 62.6932 257.861 65.4318 255.27 67.9091C252.679 70.3636 249.52 72.3182 245.793 73.7727C242.088 75.2273 237.838 75.9545 233.043 75.9545C226.724 75.9545 221.065 74.5682 216.065 71.7955C211.088 69 207.156 64.9318 204.27 59.5909C201.384 54.25 199.94 47.75 199.94 40.0909C199.94 32.4091 201.406 25.8977 204.338 20.5568C207.27 15.2159 211.236 11.1591 216.236 8.38636C221.236 5.61363 226.838 4.22727 233.043 4.22727C237.27 4.22727 241.179 4.81818 244.77 6C248.361 7.15909 251.52 8.86363 254.247 11.1136C256.974 13.3409 259.19 16.0795 260.895 19.3295C262.599 22.5795 263.656 26.2955 264.065 30.4773ZM290.392 45.1364V75H273.722V5.18182H289.847V32.25H290.426C291.608 29.0227 293.54 26.5 296.222 24.6818C298.926 22.8636 302.233 21.9545 306.142 21.9545C309.824 21.9545 313.028 22.7727 315.756 24.4091C318.483 26.0227 320.597 28.3068 322.097 31.2614C323.619 34.2159 324.369 37.6705 324.347 41.625V75H307.676V44.8977C307.699 41.9886 306.972 39.7159 305.494 38.0795C304.017 36.4432 301.938 35.625 299.256 35.625C297.506 35.625 295.96 36.0114 294.619 36.7841C293.301 37.5341 292.267 38.6136 291.517 40.0227C290.79 41.4318 290.415 43.1364 290.392 45.1364ZM349.514 75.8864C346.173 75.8864 343.207 75.3295 340.616 74.2159C338.048 73.0795 336.014 71.375 334.514 69.1023C333.037 66.8068 332.298 63.9318 332.298 60.4773C332.298 57.5682 332.81 55.1136 333.832 53.1136C334.855 51.1136 336.264 49.4886 338.06 48.2386C339.855 46.9886 341.923 46.0455 344.264 45.4091C346.605 44.75 349.105 44.3068 351.764 44.0795C354.741 43.8068 357.139 43.5227 358.957 43.2273C360.776 42.9091 362.094 42.4659 362.912 41.8977C363.753 41.3068 364.173 40.4773 364.173 39.4091V39.2386C364.173 37.4886 363.571 36.1364 362.366 35.1818C361.162 34.2273 359.537 33.75 357.491 33.75C355.287 33.75 353.514 34.2273 352.173 35.1818C350.832 36.1364 349.98 37.4545 349.616 39.1364L334.241 38.5909C334.696 35.4091 335.866 32.5682 337.753 30.0682C339.662 27.5455 342.276 25.5682 345.594 24.1364C348.935 22.6818 352.946 21.9545 357.628 21.9545C360.969 21.9545 364.048 22.3523 366.866 23.1477C369.685 23.9205 372.139 25.0568 374.23 26.5568C376.321 28.0341 377.935 29.8523 379.071 32.0114C380.23 34.1705 380.81 36.6364 380.81 39.4091V75H365.128V67.7045H364.719C363.787 69.4773 362.594 70.9773 361.139 72.2045C359.707 73.4318 358.014 74.3523 356.06 74.9659C354.128 75.5795 351.946 75.8864 349.514 75.8864ZM354.662 64.9773C356.457 64.9773 358.071 64.6136 359.503 63.8864C360.957 63.1591 362.116 62.1591 362.98 60.8864C363.844 59.5909 364.276 58.0909 364.276 56.3864V51.4091C363.798 51.6591 363.219 51.8864 362.537 52.0909C361.878 52.2955 361.151 52.4886 360.355 52.6705C359.56 52.8523 358.741 53.0114 357.901 53.1477C357.06 53.2841 356.253 53.4091 355.48 53.5227C353.912 53.7727 352.571 54.1591 351.457 54.6818C350.366 55.2045 349.526 55.8864 348.935 56.7273C348.366 57.5455 348.082 58.5227 348.082 59.6591C348.082 61.3864 348.696 62.7045 349.923 63.6136C351.173 64.5227 352.753 64.9773 354.662 64.9773ZM420.56 22.6364V34.9091H387.526V22.6364H420.56ZM394.446 10.0909H411.116V58.5341C411.116 59.5568 411.276 60.3864 411.594 61.0227C411.935 61.6364 412.423 62.0795 413.06 62.3523C413.696 62.6023 414.457 62.7273 415.344 62.7273C415.98 62.7273 416.651 62.6705 417.355 62.5568C418.082 62.4205 418.628 62.3068 418.991 62.2159L421.514 74.25C420.719 74.4773 419.594 74.7614 418.139 75.1023C416.707 75.4432 414.991 75.6591 412.991 75.75C409.082 75.9318 405.73 75.4773 402.935 74.3864C400.162 73.2727 398.037 71.5455 396.56 69.2045C395.105 66.8636 394.401 63.9205 394.446 60.375V10.0909Z" fill="black"/>
</svg>
